<svg width="80pt" height="80pt" viewBox="0 0 80 80" xmlns="http://www.w3.org/2000/svg"><path fill="#50e3c2" opacity=".5" d="M9.77 18.65c2.72-8.09 13.08-11.34 20.46-7.77 4.65 2.87 6.98 8.08 9.85 12.51 3.1-4.78 5.56-10.86 11.26-13.07 5.15-1.58 11.42-1 15.44 2.87 3.59 3.16 5.16 8.17 4.63 12.85-.64 5.8-3.39 11.08-6.37 16C58.4 52.83 49.21 61.7 40.07 70.35c-9.12-9.02-18.64-17.91-25.41-28.93-4.05-6.73-6.92-14.89-4.89-22.77z"/><path fill="#50e3c2" opacity=".5" d="M6.59 15.61C11.25 5.72 25.51 2.1 34.24 8.73c2.33 1.73 4.03 4.12 5.79 6.38 2.36-2.98 4.74-6.19 8.29-7.84 6.86-3.3 15.73-2.15 21.38 3.02 3.77 3.45 5.86 8.61 5.74 13.71.16 6.89-2.94 13.3-6.23 19.17-7.35 12.55-18.41 22.2-28.43 32.53-4.09-2.26-7.15-5.83-10.38-9.11-9.27-9.26-18.55-19.18-23.35-31.6-2.32-6.12-3.41-13.28-.46-19.38m3.18 3.04c-2.03 7.88.84 16.04 4.89 22.77 6.77 11.02 16.29 19.91 25.41 28.93 9.14-8.65 18.33-17.52 24.97-28.31 2.98-4.92 5.73-10.2 6.37-16 .53-4.68-1.04-9.69-4.63-12.85-4.02-3.87-10.29-4.45-15.44-2.87-5.7 2.21-8.16 8.29-11.26 13.07-2.87-4.43-5.2-9.64-9.85-12.51-7.38-3.57-17.74-.32-20.46 7.77z"/></svg>